<svg xmlns="http://www.w3.org/2000/svg" viewBox="0 0 512 512" role="img" aria-label="AutoDetailingSites.com icon">
  <rect width="512" height="512" rx="104" fill="#070B10"/>
  <rect x="94" y="82" width="324" height="246" rx="30" fill="none" stroke="#F8FAFC" stroke-width="18"/>
  <circle cx="130" cy="122" r="13" fill="#22D3EE"/>
  <circle cx="170" cy="122" r="13" fill="#14B8A6"/>
  <circle cx="210" cy="122" r="13" fill="#22D3EE"/>
  <path
    d="M72 311c34-41 78-62 132-62h93c39 0 76 14 111 42l20 16H319c-20-27-61-39-95-39-43 0-80 13-112 43H72Z"
    fill="#F8FAFC"
  />
  <path
    d="M108 314c10-33 38-55 72-55h76c31 0 61 12 84 33"
    fill="none"
    stroke="#070B10"
    stroke-width="15"
    stroke-linecap="round"
  />
  <path
    d="M125 316c9-27 30-43 57-43h71c22 0 43 7 62 22"
    fill="none"
    stroke="#F8FAFC"
    stroke-width="10"
    stroke-linecap="round"
  />
  <path
    d="M108 347c4-30 27-52 57-52s54 22 58 52"
    fill="none"
    stroke="#F8FAFC"
    stroke-width="17"
    stroke-linecap="round"
  />
  <path
    d="M311 347c4-30 27-52 57-52s54 22 58 52"
    fill="none"
    stroke="#F8FAFC"
    stroke-width="17"
    stroke-linecap="round"
  />
  <path
    d="M372 324 436 394l-34 3 20 48-29 12-20-48-24 24 23-109Z"
    fill="#22D3EE"
    stroke="#070B10"
    stroke-width="8"
    stroke-linejoin="round"
  />
</svg>
